# xmcd CD database file
# Copyright (C) 1996 Ti Kan
#
# Track frame offsets:
#	150
#	15547
#	32237
#	45597
#	66962
#	82525
#	105497
#	121687
#	141302
#	154307
#	176077
#	185737
#	210480
#	241455
# Disc length: 3603 seconds
#
# Revision: 1
# Processed by: cddbd v1.5.1PL0 Copyright (c) Steve Scherf et al.
# Submitted via: CDCOPY 4.900
#
DISCID=b70e110e
DTITLE=The Blarney Brothers - Lager Than Life
DYEAR=1900
DGENRE=
TTITLE0=South Australia
TTITLE1=Fires Of Calais
TTITLE2=Waiting For My Ship
TTITLE3=Gettysburg
TTITLE4=The Ballad Of St Anne's Reel
TTITLE5=Arthur McBride
TTITLE6=Barrett's Privateers
TTITLE7=Ranbow Dancer
TTITLE8=Lowlands, Low
TTITLE9=Long Way Home
TTITLE10=Pay Me, You Owe Me
TTITLE11=White Squall
TTITLE12=The Roving Dies Hard
TTITLE13=Gypsies
EXTD=
EXTT0=
EXTT1=
EXTT2=
EXTT3=
EXTT4=
EXTT5=
EXTT6=
EXTT7=
EXTT8=
EXTT9=
EXTT10=
EXTT11=
EXTT12=
EXTT13=
PLAYORDER=
